<svg width="24" height="30" viewBox="0 0 24 30" fill="none" xmlns="http://www.w3.org/2000/svg">
<path d="M1.5 5.84473V20.5447C1.5 22.2249 1.5 23.065 1.82698 23.7067C2.1146 24.2712 2.57354 24.7301 3.13803 25.0177C3.77976 25.3447 4.61984 25.3447 6.3 25.3447H17.7C19.3802 25.3447 20.2202 25.3447 20.862 25.0177C21.4265 24.7301 21.8854 24.2712 22.173 23.7067C22.5 23.065 22.5 22.2249 22.5 20.5447V5.84473M1.5 5.84473C1.5 5.84473 1.5 1.34473 12 1.34473C22.5 1.34473 22.5 5.84473 22.5 5.84473M1.5 5.84473H22.5M1.5 16.3447H22.5M19.5 28.3447V25.3447M4.5 28.3447V25.3447M6 20.8447H6.015M18 20.8447H18.015" stroke="black" stroke-width="2" stroke-linecap="round" stroke-linejoin="round"/>
</svg>
