<svg width="24" height="30" viewBox="0 0 24 30" fill="none" xmlns="http://www.w3.org/2000/svg">
<path d="M1.5 13.3447H22.5M7.5 23.8447L3 28.3447M16.5 23.8447L21 28.3447M12 13.3447V2.84473M6 19.3447H6.015M18 19.3447H18.015M6.3 23.8447H17.7C19.3802 23.8447 20.2202 23.8447 20.862 23.5177C21.4265 23.2301 21.8854 22.7712 22.173 22.2067C22.5 21.565 22.5 20.7249 22.5 19.0447V6.14473C22.5 4.46457 22.5 3.62449 22.173 2.98276C21.8854 2.41827 21.4265 1.95933 20.862 1.67171C20.2202 1.34473 19.3802 1.34473 17.7 1.34473H6.3C4.61984 1.34473 3.77976 1.34473 3.13803 1.67171C2.57354 1.95933 2.1146 2.41827 1.82698 2.98276C1.5 3.62449 1.5 4.46457 1.5 6.14473V19.0447C1.5 20.7249 1.5 21.565 1.82698 22.2067C2.1146 22.7712 2.57354 23.2301 3.13803 23.5177C3.77976 23.8447 4.61984 23.8447 6.3 23.8447Z" stroke="black" stroke-width="2" stroke-linecap="round" stroke-linejoin="round"/>
</svg>
