<svg width="428" height="190" viewBox="0 0 428 190" fill="none" xmlns="http://www.w3.org/2000/svg">
<rect width="428" height="190" fill="white"/>
<path d="M29.9 20.024V18.76H34.268V20.024H29.9Z" fill="black"/>
<path d="M37.484 55H30.412V43.784H32.028V53.384H37.484V55ZM46.5898 46.904V55H44.9738V54.024C44.3978 54.824 43.3738 55.192 42.4298 55.192C40.3978 55.192 38.8298 53.72 38.8298 51.768V46.904H40.4457V51.336C40.4457 53.048 41.4858 53.736 42.6218 53.736C44.1258 53.736 44.9738 52.536 44.9738 51.032V46.904H46.5898ZM52.54 46.696C54.572 46.696 56.14 48.168 56.14 50.12V55H54.524V50.712C54.524 49.144 53.596 48.296 52.348 48.296C50.796 48.296 49.996 49.368 49.996 50.872V55H48.38V46.904H49.996V47.88C50.54 47.08 51.628 46.696 52.54 46.696ZM65.4391 51.384H58.7991C58.9751 52.648 60.0631 53.592 61.2951 53.592C62.6551 53.592 63.3911 53.128 63.8871 51.928L65.3591 52.584C64.6071 54.328 63.3431 55.192 61.2951 55.192C59.0231 55.192 57.1511 53.288 57.1511 50.936C57.1511 48.6 59.0231 46.696 61.2951 46.696C63.5991 46.696 65.4551 48.6 65.4551 50.936C65.4551 51.08 65.4391 51.24 65.4391 51.384ZM58.8791 50.232H63.7271C63.4391 49.128 62.4791 48.296 61.2951 48.296C60.1431 48.296 59.1351 49.128 58.8791 50.232ZM73.2514 47.896V43.08H74.8514V55H73.2514V53.992C72.5314 54.744 71.5554 55.192 70.4194 55.192C68.1474 55.192 66.2754 53.288 66.2754 50.936C66.2754 48.6 68.1474 46.696 70.4194 46.696C71.5554 46.696 72.5314 47.144 73.2514 47.896ZM70.4194 53.592C71.8434 53.592 72.9794 52.408 72.9794 50.936C72.9794 49.48 71.8434 48.296 70.4194 48.296C69.0274 48.296 67.8914 49.48 67.8914 50.936C67.8914 52.408 69.0274 53.592 70.4194 53.592ZM75.9413 42.888H78.0213L79.5253 44.888H78.0373L75.9413 42.888ZM76.9333 46.92H78.5493V55H76.9333V46.92Z" fill="black"/>
<path d="M42.396 85H40.796L39.964 76.376L39.116 79.544L37.116 85H35.084L33.084 79.544L32.236 76.376L31.404 85H29.788L30.876 73.784H32.684L36.092 83.08L39.516 73.784H41.324L42.396 85ZM50.158 77.896V76.888H51.774V85H50.158V83.992C49.454 84.744 48.478 85.192 47.342 85.192C45.07 85.192 43.198 83.288 43.198 80.936C43.198 78.6 45.07 76.696 47.342 76.696C48.478 76.696 49.454 77.144 50.158 77.896ZM47.342 83.592C48.75 83.592 49.886 82.408 49.886 80.936C49.886 79.48 48.75 78.296 47.342 78.296C45.95 78.296 44.798 79.48 44.798 80.936C44.798 82.408 45.95 83.592 47.342 83.592ZM56.8189 76.744H57.8589V78.36H56.8189C55.9229 78.36 55.1709 78.92 55.1709 79.864V85H53.5549V76.744H55.1709V77.688C55.5389 77.112 56.0669 76.744 56.8189 76.744ZM61.1955 78.36V82.376C61.1955 83.432 61.7075 83.432 62.5395 83.432H63.0995V85H62.2835C60.6995 85 59.5795 84.536 59.5795 82.968V78.36H58.5715V76.744H59.5795V74.824L61.1955 74.376V76.744H62.5075V78.36H61.1955ZM71.6735 81.384H65.0335C65.2095 82.648 66.2975 83.592 67.5295 83.592C68.8895 83.592 69.6255 83.128 70.1215 81.928L71.5935 82.584C70.8415 84.328 69.5775 85.192 67.5295 85.192C65.2575 85.192 63.3855 83.288 63.3855 80.936C63.3855 78.6 65.2575 76.696 67.5295 76.696C69.8335 76.696 71.6895 78.6 71.6895 80.936C71.6895 81.08 71.6735 81.24 71.6735 81.384ZM65.1135 80.232H69.9615C69.6735 79.128 68.7135 78.296 67.5295 78.296C66.3775 78.296 65.3695 79.128 65.1135 80.232ZM79.4858 77.896V73.08H81.0858V85H79.4858V83.992C78.7658 84.744 77.7898 85.192 76.6538 85.192C74.3818 85.192 72.5098 83.288 72.5098 80.936C72.5098 78.6 74.3818 76.696 76.6538 76.696C77.7898 76.696 78.7658 77.144 79.4858 77.896ZM76.6538 83.592C78.0778 83.592 79.2138 82.408 79.2138 80.936C79.2138 79.48 78.0778 78.296 76.6538 78.296C75.2618 78.296 74.1258 79.48 74.1258 80.936C74.1258 82.408 75.2618 83.592 76.6538 83.592ZM82.1756 72.888H84.2556L85.7596 74.888H84.2716L82.1756 72.888ZM83.1676 76.92H84.7836V85H83.1676V76.92Z" fill="black"/>
<path d="M42.396 115H40.796L39.964 106.376L39.116 109.544L37.116 115H35.084L33.084 109.544L32.236 106.376L31.404 115H29.788L30.876 103.784H32.684L36.092 113.08L39.516 103.784H41.324L42.396 115ZM51.486 111.384H44.846C45.022 112.648 46.11 113.592 47.342 113.592C48.702 113.592 49.438 113.128 49.934 111.928L51.406 112.584C50.654 114.328 49.39 115.192 47.342 115.192C45.07 115.192 43.198 113.288 43.198 110.936C43.198 108.6 45.07 106.696 47.342 106.696C49.646 106.696 51.502 108.6 51.502 110.936C51.502 111.08 51.486 111.24 51.486 111.384ZM44.926 110.232H49.774C49.486 109.128 48.526 108.296 47.342 108.296C46.19 108.296 45.182 109.128 44.926 110.232ZM55.9595 106.744H56.9995V108.36H55.9595C55.0635 108.36 54.3115 108.92 54.3115 109.864V115H52.6955V106.744H54.3115V107.688C54.6795 107.112 55.2075 106.744 55.9595 106.744ZM63.1969 112.776L64.3329 113.912C63.5649 114.696 62.5249 115.192 61.3729 115.192C59.0689 115.192 57.2129 113.288 57.2129 110.936C57.2129 108.6 59.0689 106.696 61.3729 106.696C62.5249 106.696 63.5649 107.192 64.3329 107.976L63.1969 109.112C62.7489 108.6 62.0929 108.296 61.3729 108.296C59.9649 108.296 58.8289 109.48 58.8289 110.936C58.8289 112.408 59.9649 113.592 61.3729 113.592C62.0929 113.592 62.7489 113.288 63.1969 112.776ZM68.7628 106.696C71.0668 106.696 72.9228 108.6 72.9228 110.952C72.9228 113.288 71.0508 115.192 68.7788 115.192C66.4748 115.192 64.6188 113.288 64.6188 110.952C64.6188 108.6 66.4908 106.696 68.7628 106.696ZM68.7628 108.296C67.3708 108.296 66.2188 109.48 66.2188 110.952C66.2188 112.408 67.3708 113.592 68.7628 113.592C70.1868 113.592 71.3228 112.408 71.3228 110.952C71.3228 109.48 70.1868 108.296 68.7628 108.296ZM74.2089 115V103.096H75.8249V115H74.2089ZM85.4704 111.384H78.8304C79.0064 112.648 80.0944 113.592 81.3264 113.592C82.6864 113.592 83.4224 113.128 83.9184 111.928L85.3904 112.584C84.6384 114.328 83.3744 115.192 81.3264 115.192C79.0544 115.192 77.1824 113.288 77.1824 110.936C77.1824 108.6 79.0544 106.696 81.3264 106.696C83.6304 106.696 85.4864 108.6 85.4864 110.936C85.4864 111.08 85.4704 111.24 85.4704 111.384ZM78.9104 110.232H83.7584C83.4704 109.128 82.5104 108.296 81.3264 108.296C80.1744 108.296 79.1664 109.128 78.9104 110.232ZM93.2826 107.896V103.08H94.8826V115H93.2826V113.992C92.5626 114.744 91.5866 115.192 90.4506 115.192C88.1786 115.192 86.3066 113.288 86.3066 110.936C86.3066 108.6 88.1786 106.696 90.4506 106.696C91.5866 106.696 92.5626 107.144 93.2826 107.896ZM90.4506 113.592C91.8746 113.592 93.0106 112.408 93.0106 110.936C93.0106 109.48 91.8746 108.296 90.4506 108.296C89.0586 108.296 87.9226 109.48 87.9226 110.936C87.9226 112.408 89.0586 113.592 90.4506 113.592ZM95.9725 102.888H98.0525L99.5565 104.888H98.0685L95.9725 102.888ZM96.9645 106.92H98.5805V115H96.9645V106.92Z" fill="black"/>
<path d="M40.316 143.08C39.068 144.664 37.82 145.176 35.724 145.176C32.604 145.176 30.06 142.584 30.06 139.384C30.06 136.184 32.604 133.608 35.724 133.608C37.308 133.608 38.732 134.264 39.756 135.352L38.62 136.488C37.9 135.672 36.876 135.192 35.724 135.192C33.5 135.192 31.676 137.064 31.676 139.384C31.676 141.704 33.5 143.56 35.724 143.56C36.988 143.56 38.076 143.256 38.716 142.344V140.312H35.42V138.712H40.316V143.08ZM42.7801 133.672C43.3721 133.672 43.8841 134.184 43.8841 134.776C43.8841 135.4 43.3721 135.88 42.7801 135.88C42.1401 135.88 41.6601 135.4 41.6601 134.776C41.6601 134.184 42.1401 133.672 42.7801 133.672ZM41.9641 145V136.92H43.5801V145H41.9641ZM49.1378 136.696C51.4418 136.696 53.2978 138.6 53.2978 140.952C53.2978 143.288 51.4258 145.192 49.1538 145.192C46.8498 145.192 44.9938 143.288 44.9938 140.952C44.9938 138.6 46.8658 136.696 49.1378 136.696ZM49.1378 138.296C47.7458 138.296 46.5938 139.48 46.5938 140.952C46.5938 142.408 47.7458 143.592 49.1378 143.592C50.5618 143.592 51.6978 142.408 51.6978 140.952C51.6978 139.48 50.5618 138.296 49.1378 138.296ZM60.2863 136.904H62.0143L58.7343 145H56.8463L53.5663 136.904H55.2943L57.8063 143.032L60.2863 136.904ZM70.6579 141.384H64.0179C64.1939 142.648 65.2819 143.592 66.5139 143.592C67.8739 143.592 68.6099 143.128 69.1059 141.928L70.5779 142.584C69.8259 144.328 68.5619 145.192 66.5139 145.192C64.2419 145.192 62.3699 143.288 62.3699 140.936C62.3699 138.6 64.2419 136.696 66.5139 136.696C68.8179 136.696 70.6739 138.6 70.6739 140.936C70.6739 141.08 70.6579 141.24 70.6579 141.384ZM64.0979 140.232H68.9459C68.6579 139.128 67.6979 138.296 66.5139 138.296C65.3619 138.296 64.3539 139.128 64.0979 140.232ZM78.4701 137.896V133.08H80.0701V145H78.4701V143.992C77.7501 144.744 76.7741 145.192 75.6381 145.192C73.3661 145.192 71.4941 143.288 71.4941 140.936C71.4941 138.6 73.3661 136.696 75.6381 136.696C76.7741 136.696 77.7501 137.144 78.4701 137.896ZM75.6381 143.592C77.0621 143.592 78.1981 142.408 78.1981 140.936C78.1981 139.48 77.0621 138.296 75.6381 138.296C74.2461 138.296 73.1101 139.48 73.1101 140.936C73.1101 142.408 74.2461 143.592 75.6381 143.592ZM81.16 132.888H83.24L84.744 134.888H83.256L81.16 132.888ZM82.152 136.92H83.768V145H82.152V136.92Z" fill="black"/>
<path d="M38.588 163.784H40.3L36.172 175H33.884L29.756 163.784H31.468L35.02 173.432L38.588 163.784ZM48.3298 171.384H41.6898C41.8658 172.648 42.9538 173.592 44.1858 173.592C45.5458 173.592 46.2818 173.128 46.7778 171.928L48.2498 172.584C47.4978 174.328 46.2338 175.192 44.1858 175.192C41.9138 175.192 40.0418 173.288 40.0418 170.936C40.0418 168.6 41.9138 166.696 44.1858 166.696C46.4898 166.696 48.3458 168.6 48.3458 170.936C48.3458 171.08 48.3298 171.24 48.3298 171.384ZM41.7698 170.232H46.6178C46.3298 169.128 45.3698 168.296 44.1858 168.296C43.0338 168.296 42.0258 169.128 41.7698 170.232ZM53.5713 166.696C55.6033 166.696 57.1713 168.168 57.1713 170.12V175H55.5553V170.712C55.5553 169.144 54.6273 168.296 53.3793 168.296C51.8273 168.296 51.0273 169.368 51.0273 170.872V175H49.4113V166.904H51.0273V167.88C51.5713 167.08 52.6593 166.696 53.5713 166.696ZM66.4704 171.384H59.8304C60.0064 172.648 61.0944 173.592 62.3264 173.592C63.6864 173.592 64.4224 173.128 64.9184 171.928L66.3904 172.584C65.6384 174.328 64.3744 175.192 62.3264 175.192C60.0544 175.192 58.1824 173.288 58.1824 170.936C58.1824 168.6 60.0544 166.696 62.3264 166.696C64.6304 166.696 66.4864 168.6 66.4864 170.936C66.4864 171.08 66.4704 171.24 66.4704 171.384ZM59.9104 170.232H64.7584C64.4704 169.128 63.5104 168.296 62.3264 168.296C61.1744 168.296 60.1664 169.128 59.9104 170.232ZM70.9439 166.744H71.9839V168.36H70.9439C70.0479 168.36 69.2959 168.92 69.2959 169.864V175H67.6799V166.744H69.2959V167.688C69.6639 167.112 70.1919 166.744 70.9439 166.744ZM79.1733 167.896V163.08H80.7733V175H79.1733V173.992C78.4533 174.744 77.4773 175.192 76.3413 175.192C74.0693 175.192 72.1973 173.288 72.1973 170.936C72.1973 168.6 74.0693 166.696 76.3413 166.696C77.4773 166.696 78.4533 167.144 79.1733 167.896ZM76.3413 173.592C77.7653 173.592 78.9013 172.408 78.9013 170.936C78.9013 169.48 77.7653 168.296 76.3413 168.296C74.9493 168.296 73.8133 169.48 73.8133 170.936C73.8133 172.408 74.9493 173.592 76.3413 173.592ZM81.8631 162.888H83.9431L85.4471 164.888H83.9591L81.8631 162.888ZM82.8551 166.92H84.4711V175H82.8551V166.92Z" fill="black"/>
<path d="M157.888 25H156.288L155.456 16.376L154.608 19.544L152.608 25H150.576L148.576 19.544L147.728 16.376L146.896 25H145.28L146.368 13.784H148.176L151.584 23.08L155.008 13.784H156.816L157.888 25ZM162.61 13.784H164.898L168.93 25H167.218L166.018 21.656H161.49L160.29 25H158.578L162.61 13.784ZM163.746 15.368L162.066 20.04H165.458L163.746 15.368ZM167.88 15.384V13.784H177.208V15.384H173.336V25H171.736V15.384H167.88ZM178.239 15.384V13.784H187.567V15.384H183.695V25H182.095V15.384H178.239ZM189.062 25V13.784H190.662V25H189.062ZM192.56 13.8H194.656L200.528 22.824V13.832H202.128V25.032H200.032L194.176 16.024V25H192.56V13.8ZM207.423 13.784H209.711L213.743 25H212.031L210.831 21.656H206.303L205.103 25H203.391L207.423 13.784ZM208.559 15.368L206.879 20.04H210.271L208.559 15.368Z" fill="black"/>
<rect x="120.5" y="40" width="118" height="20" rx="10" fill="#FB4444"/>
<path d="M160.081 52.296L161.217 53.432C160.193 54.52 158.769 55.176 157.169 55.176C154.033 55.176 151.521 52.6 151.521 49.4C151.521 46.2 154.033 43.608 157.169 43.608C158.769 43.608 160.193 44.264 161.217 45.352L160.081 46.488C159.361 45.672 158.321 45.208 157.169 45.208C154.945 45.208 153.121 47.064 153.121 49.4C153.121 51.704 154.945 53.576 157.169 53.576C158.321 53.576 159.361 53.08 160.081 52.296ZM164.284 49.976V55H162.668V43.784H164.284V48.36H170.268V43.784H171.868V55H170.268V49.976H164.284ZM173.719 55V43.784H175.319V55H173.719ZM184.672 50.504V43.784H186.272V50.504C186.272 53.304 184.672 55.192 181.6 55.192C178.544 55.192 176.912 53.304 176.912 50.504V43.784H178.528V50.504C178.528 52.552 179.552 53.576 181.6 53.576C183.648 53.576 184.672 52.552 184.672 50.504ZM191.635 48.616C193.459 49.176 195.059 49.992 195.059 52.024V52.104C195.011 54.104 193.219 55.192 191.251 55.192C190.243 55.192 189.043 54.968 187.443 54.328L188.051 52.84C189.331 53.352 190.387 53.576 191.267 53.576C192.307 53.576 193.443 53.176 193.443 52.056V51.992C193.443 50.856 192.115 50.456 191.171 50.152C189.427 49.592 187.779 48.84 187.779 46.728C187.779 44.664 189.635 43.624 191.587 43.624C192.547 43.624 193.731 43.816 195.251 44.44L194.659 45.928C193.491 45.464 192.451 45.208 191.571 45.208C190.563 45.208 189.379 45.624 189.379 46.744C189.379 47.96 190.707 48.312 191.635 48.616ZM201.81 43.624C204.914 43.624 207.458 46.2 207.458 49.4C207.458 52.6 204.914 55.192 201.794 55.192C198.674 55.192 196.146 52.6 196.146 49.4C196.146 46.2 198.658 43.624 201.81 43.624ZM201.794 45.224C199.554 45.224 197.762 47.096 197.762 49.4C197.762 51.704 199.554 53.576 201.794 53.576C204.034 53.576 205.858 51.704 205.858 49.4C205.858 47.096 204.034 45.224 201.794 45.224Z" fill="black"/>
<rect x="120.5" y="70" width="118" height="20" rx="10" fill="white"/>
<path d="M136.959 74.184H138.351V85H136.751V75.768L134.735 76.824L134.399 75.448L136.959 74.184ZM148.692 79.576C148.692 83.032 146.9 85.192 144.34 85.192C141.764 85.192 140.004 83.032 140.004 79.576C140.004 76.12 141.764 73.976 144.34 73.976C146.9 73.976 148.692 76.12 148.692 79.576ZM141.62 79.576C141.62 81.112 142.18 83.576 144.34 83.576C146.548 83.576 147.092 81.112 147.092 79.576C147.092 78.056 146.548 75.576 144.34 75.576C142.18 75.576 141.62 78.056 141.62 79.576ZM151.115 76.92C151.835 76.92 152.299 77.416 152.315 78.12C152.315 78.808 151.835 79.32 151.115 79.32C150.411 79.32 149.931 78.808 149.931 78.12C149.931 77.416 150.427 76.92 151.115 76.92ZM151.115 82.6C151.835 82.6 152.299 83.096 152.315 83.8C152.315 84.488 151.835 85 151.115 85C150.411 85 149.931 84.488 149.931 83.8C149.931 83.096 150.427 82.6 151.115 82.6ZM162.239 79.576C162.239 83.032 160.447 85.192 157.887 85.192C155.311 85.192 153.551 83.032 153.551 79.576C153.551 76.12 155.311 73.976 157.887 73.976C160.447 73.976 162.239 76.12 162.239 79.576ZM155.167 79.576C155.167 81.112 155.727 83.576 157.887 83.576C160.095 83.576 160.639 81.112 160.639 79.576C160.639 78.056 160.095 75.576 157.887 75.576C155.727 75.576 155.167 78.056 155.167 79.576ZM171.942 79.576C171.942 83.032 170.15 85.192 167.59 85.192C165.014 85.192 163.254 83.032 163.254 79.576C163.254 76.12 165.014 73.976 167.59 73.976C170.15 73.976 171.942 76.12 171.942 79.576ZM164.87 79.576C164.87 81.112 165.43 83.576 167.59 83.576C169.798 83.576 170.342 81.112 170.342 79.576C170.342 78.056 169.798 75.576 167.59 75.576C165.43 75.576 164.87 78.056 164.87 79.576ZM177.642 80.024V78.76H182.01V80.024H177.642ZM190.443 74.184H191.835V85H190.235V75.768L188.219 76.824L187.883 75.448L190.443 74.184ZM196.881 83.576C198.897 83.576 199.537 82.632 199.537 81.736C199.537 80.296 197.825 79.88 196.465 79.88H195.393V78.552H196.481C197.553 78.552 199.233 78.072 199.233 76.904C199.233 76.184 198.513 75.528 197.089 75.528C196.081 75.528 195.201 75.864 194.641 76.232L193.953 74.904C194.657 74.408 195.953 73.992 197.313 73.992C199.681 73.992 200.833 75.256 200.833 76.632C200.833 77.784 200.129 78.712 198.673 79.176V79.208C200.113 79.464 201.233 80.488 201.233 81.928C201.233 83.704 199.697 85.208 196.881 85.208C195.457 85.208 194.081 84.728 193.521 84.344L194.193 82.936C194.657 83.192 195.713 83.576 196.881 83.576ZM203.943 76.92C204.663 76.92 205.127 77.416 205.143 78.12C205.143 78.808 204.663 79.32 203.943 79.32C203.239 79.32 202.759 78.808 202.759 78.12C202.759 77.416 203.255 76.92 203.943 76.92ZM203.943 82.6C204.663 82.6 205.127 83.096 205.143 83.8C205.143 84.488 204.663 85 203.943 85C203.239 85 202.759 84.488 202.759 83.8C202.759 83.096 203.255 82.6 203.943 82.6ZM215.067 79.576C215.067 83.032 213.275 85.192 210.715 85.192C208.139 85.192 206.379 83.032 206.379 79.576C206.379 76.12 208.139 73.976 210.715 73.976C213.275 73.976 215.067 76.12 215.067 79.576ZM207.995 79.576C207.995 81.112 208.555 83.576 210.715 83.576C212.923 83.576 213.467 81.112 213.467 79.576C213.467 78.056 212.923 75.576 210.715 75.576C208.555 75.576 207.995 78.056 207.995 79.576ZM224.77 79.576C224.77 83.032 222.978 85.192 220.418 85.192C217.842 85.192 216.082 83.032 216.082 79.576C216.082 76.12 217.842 73.976 220.418 73.976C222.978 73.976 224.77 76.12 224.77 79.576ZM217.698 79.576C217.698 81.112 218.258 83.576 220.418 83.576C222.626 83.576 223.17 81.112 223.17 79.576C223.17 78.056 222.626 75.576 220.418 75.576C218.258 75.576 217.698 78.056 217.698 79.576Z" fill="black"/>
<rect x="120.5" y="100" width="118" height="20" rx="10" fill="white"/>
<path d="M141.013 109.576C141.013 113.032 139.221 115.192 136.661 115.192C134.085 115.192 132.325 113.032 132.325 109.576C132.325 106.12 134.085 103.976 136.661 103.976C139.221 103.976 141.013 106.12 141.013 109.576ZM133.941 109.576C133.941 111.112 134.501 113.576 136.661 113.576C138.869 113.576 139.413 111.112 139.413 109.576C139.413 108.056 138.869 105.576 136.661 105.576C134.501 105.576 133.941 108.056 133.941 109.576ZM148.14 109.24C149.532 109.704 150.412 110.616 150.412 111.96C150.412 113.928 148.668 115.208 146.3 115.208C143.74 115.208 142.284 113.8 142.284 112.216C142.284 110.888 143.052 109.976 144.476 109.416V109.368C143.212 108.84 142.7 107.928 142.7 106.968C142.7 105.24 144.316 103.992 146.444 103.992C148.876 103.992 149.964 105.368 149.964 106.728C149.964 107.64 149.484 108.648 148.14 109.192V109.24ZM144.348 106.856C144.348 107.864 145.196 108.424 146.556 108.696C147.5 108.456 148.268 107.864 148.268 106.904C148.268 106.136 147.74 105.256 146.332 105.256C145.02 105.256 144.348 106.024 144.348 106.856ZM146.364 113.896C147.724 113.896 148.62 113.112 148.62 112.152C148.62 110.92 147.644 110.344 146.108 110.008C144.812 110.28 144.028 111.016 144.028 111.992V112.056C144.028 112.952 144.908 113.896 146.364 113.896ZM153.029 106.92C153.749 106.92 154.213 107.416 154.229 108.12C154.229 108.808 153.749 109.32 153.029 109.32C152.325 109.32 151.845 108.808 151.845 108.12C151.845 107.416 152.341 106.92 153.029 106.92ZM153.029 112.6C153.749 112.6 154.213 113.096 154.229 113.8C154.229 114.488 153.749 115 153.029 115C152.325 115 151.845 114.488 151.845 113.8C151.845 113.096 152.341 112.6 153.029 112.6ZM164.153 109.576C164.153 113.032 162.361 115.192 159.801 115.192C157.225 115.192 155.465 113.032 155.465 109.576C155.465 106.12 157.225 103.976 159.801 103.976C162.361 103.976 164.153 106.12 164.153 109.576ZM157.081 109.576C157.081 111.112 157.641 113.576 159.801 113.576C162.009 113.576 162.553 111.112 162.553 109.576C162.553 108.056 162.009 105.576 159.801 105.576C157.641 105.576 157.081 108.056 157.081 109.576ZM173.856 109.576C173.856 113.032 172.064 115.192 169.504 115.192C166.928 115.192 165.168 113.032 165.168 109.576C165.168 106.12 166.928 103.976 169.504 103.976C172.064 103.976 173.856 106.12 173.856 109.576ZM166.784 109.576C166.784 111.112 167.344 113.576 169.504 113.576C171.712 113.576 172.256 111.112 172.256 109.576C172.256 108.056 171.712 105.576 169.504 105.576C167.344 105.576 166.784 108.056 166.784 109.576ZM179.556 110.024V108.76H183.924V110.024H179.556ZM192.357 104.184H193.749V115H192.149V105.768L190.133 106.824L189.797 105.448L192.357 104.184ZM198.795 113.576C200.811 113.576 201.451 112.632 201.451 111.736C201.451 110.296 199.739 109.88 198.379 109.88H197.307V108.552H198.395C199.467 108.552 201.147 108.072 201.147 106.904C201.147 106.184 200.427 105.528 199.003 105.528C197.995 105.528 197.115 105.864 196.555 106.232L195.867 104.904C196.571 104.408 197.867 103.992 199.227 103.992C201.595 103.992 202.747 105.256 202.747 106.632C202.747 107.784 202.043 108.712 200.587 109.176V109.208C202.027 109.464 203.147 110.488 203.147 111.928C203.147 113.704 201.611 115.208 198.795 115.208C197.371 115.208 195.995 114.728 195.435 114.344L196.107 112.936C196.571 113.192 197.627 113.576 198.795 113.576ZM205.858 106.92C206.578 106.92 207.042 107.416 207.058 108.12C207.058 108.808 206.578 109.32 205.858 109.32C205.154 109.32 204.674 108.808 204.674 108.12C204.674 107.416 205.17 106.92 205.858 106.92ZM205.858 112.6C206.578 112.6 207.042 113.096 207.058 113.8C207.058 114.488 206.578 115 205.858 115C205.154 115 204.674 114.488 204.674 113.8C204.674 113.096 205.17 112.6 205.858 112.6ZM216.981 109.576C216.981 113.032 215.189 115.192 212.629 115.192C210.053 115.192 208.293 113.032 208.293 109.576C208.293 106.12 210.053 103.976 212.629 103.976C215.189 103.976 216.981 106.12 216.981 109.576ZM209.909 109.576C209.909 111.112 210.469 113.576 212.629 113.576C214.837 113.576 215.381 111.112 215.381 109.576C215.381 108.056 214.837 105.576 212.629 105.576C210.469 105.576 209.909 108.056 209.909 109.576ZM226.684 109.576C226.684 113.032 224.892 115.192 222.332 115.192C219.756 115.192 217.996 113.032 217.996 109.576C217.996 106.12 219.756 103.976 222.332 103.976C224.892 103.976 226.684 106.12 226.684 109.576ZM219.612 109.576C219.612 111.112 220.172 113.576 222.332 113.576C224.54 113.576 225.084 111.112 225.084 109.576C225.084 108.056 224.54 105.576 222.332 105.576C220.172 105.576 219.612 108.056 219.612 109.576Z" fill="black"/>
<rect x="121" y="130" width="117" height="20" rx="10" fill="white"/>
<path d="M138.927 134.184H140.319V145H138.719V135.768L136.703 136.824L136.367 135.448L138.927 134.184ZM144.693 134.184H146.085V145H144.485V135.768L142.469 136.824L142.133 135.448L144.693 134.184ZM149.147 136.92C149.867 136.92 150.331 137.416 150.347 138.12C150.347 138.808 149.867 139.32 149.147 139.32C148.443 139.32 147.963 138.808 147.963 138.12C147.963 137.416 148.459 136.92 149.147 136.92ZM149.147 142.6C149.867 142.6 150.331 143.096 150.347 143.8C150.347 144.488 149.867 145 149.147 145C148.443 145 147.963 144.488 147.963 143.8C147.963 143.096 148.459 142.6 149.147 142.6ZM160.27 139.576C160.27 143.032 158.478 145.192 155.918 145.192C153.342 145.192 151.582 143.032 151.582 139.576C151.582 136.12 153.342 133.976 155.918 133.976C158.478 133.976 160.27 136.12 160.27 139.576ZM153.198 139.576C153.198 141.112 153.758 143.576 155.918 143.576C158.126 143.576 158.67 141.112 158.67 139.576C158.67 138.056 158.126 135.576 155.918 135.576C153.758 135.576 153.198 138.056 153.198 139.576ZM169.973 139.576C169.973 143.032 168.181 145.192 165.621 145.192C163.045 145.192 161.285 143.032 161.285 139.576C161.285 136.12 163.045 133.976 165.621 133.976C168.181 133.976 169.973 136.12 169.973 139.576ZM162.901 139.576C162.901 141.112 163.461 143.576 165.621 143.576C167.829 143.576 168.373 141.112 168.373 139.576C168.373 138.056 167.829 135.576 165.621 135.576C163.461 135.576 162.901 138.056 162.901 139.576ZM175.673 140.024V138.76H180.041V140.024H175.673ZM188.474 134.184H189.866V145H188.266V135.768L186.25 136.824L185.914 135.448L188.474 134.184ZM194.912 143.576C196.928 143.576 197.568 142.632 197.568 141.736C197.568 140.296 195.856 139.88 194.496 139.88H193.424V138.552H194.512C195.584 138.552 197.264 138.072 197.264 136.904C197.264 136.184 196.544 135.528 195.12 135.528C194.112 135.528 193.232 135.864 192.672 136.232L191.984 134.904C192.688 134.408 193.984 133.992 195.344 133.992C197.712 133.992 198.864 135.256 198.864 136.632C198.864 137.784 198.16 138.712 196.704 139.176V139.208C198.144 139.464 199.264 140.488 199.264 141.928C199.264 143.704 197.728 145.208 194.912 145.208C193.488 145.208 192.112 144.728 191.552 144.344L192.224 142.936C192.688 143.192 193.744 143.576 194.912 143.576ZM201.975 136.92C202.695 136.92 203.159 137.416 203.175 138.12C203.175 138.808 202.695 139.32 201.975 139.32C201.271 139.32 200.791 138.808 200.791 138.12C200.791 137.416 201.287 136.92 201.975 136.92ZM201.975 142.6C202.695 142.6 203.159 143.096 203.175 143.8C203.175 144.488 202.695 145 201.975 145C201.271 145 200.791 144.488 200.791 143.8C200.791 143.096 201.287 142.6 201.975 142.6ZM213.098 139.576C213.098 143.032 211.306 145.192 208.746 145.192C206.17 145.192 204.41 143.032 204.41 139.576C204.41 136.12 206.17 133.976 208.746 133.976C211.306 133.976 213.098 136.12 213.098 139.576ZM206.026 139.576C206.026 141.112 206.586 143.576 208.746 143.576C210.954 143.576 211.498 141.112 211.498 139.576C211.498 138.056 210.954 135.576 208.746 135.576C206.586 135.576 206.026 138.056 206.026 139.576ZM222.802 139.576C222.802 143.032 221.01 145.192 218.45 145.192C215.874 145.192 214.114 143.032 214.114 139.576C214.114 136.12 215.874 133.976 218.45 133.976C221.01 133.976 222.802 136.12 222.802 139.576ZM215.73 139.576C215.73 141.112 216.29 143.576 218.45 143.576C220.658 143.576 221.202 141.112 221.202 139.576C221.202 138.056 220.658 135.576 218.45 135.576C216.29 135.576 215.73 138.056 215.73 139.576Z" fill="black"/>
<rect x="120.5" y="160" width="118" height="20" rx="10" fill="white"/>
<path d="M141.013 169.576C141.013 173.032 139.221 175.192 136.661 175.192C134.085 175.192 132.325 173.032 132.325 169.576C132.325 166.12 134.085 163.976 136.661 163.976C139.221 163.976 141.013 166.12 141.013 169.576ZM133.941 169.576C133.941 171.112 134.501 173.576 136.661 173.576C138.869 173.576 139.413 171.112 139.413 169.576C139.413 168.056 138.869 165.576 136.661 165.576C134.501 165.576 133.941 168.056 133.941 169.576ZM148.14 169.24C149.532 169.704 150.412 170.616 150.412 171.96C150.412 173.928 148.668 175.208 146.3 175.208C143.74 175.208 142.284 173.8 142.284 172.216C142.284 170.888 143.052 169.976 144.476 169.416V169.368C143.212 168.84 142.7 167.928 142.7 166.968C142.7 165.24 144.316 163.992 146.444 163.992C148.876 163.992 149.964 165.368 149.964 166.728C149.964 167.64 149.484 168.648 148.14 169.192V169.24ZM144.348 166.856C144.348 167.864 145.196 168.424 146.556 168.696C147.5 168.456 148.268 167.864 148.268 166.904C148.268 166.136 147.74 165.256 146.332 165.256C145.02 165.256 144.348 166.024 144.348 166.856ZM146.364 173.896C147.724 173.896 148.62 173.112 148.62 172.152C148.62 170.92 147.644 170.344 146.108 170.008C144.812 170.28 144.028 171.016 144.028 171.992V172.056C144.028 172.952 144.908 173.896 146.364 173.896ZM153.029 166.92C153.749 166.92 154.213 167.416 154.229 168.12C154.229 168.808 153.749 169.32 153.029 169.32C152.325 169.32 151.845 168.808 151.845 168.12C151.845 167.416 152.341 166.92 153.029 166.92ZM153.029 172.6C153.749 172.6 154.213 173.096 154.229 173.8C154.229 174.488 153.749 175 153.029 175C152.325 175 151.845 174.488 151.845 173.8C151.845 173.096 152.341 172.6 153.029 172.6ZM164.153 169.576C164.153 173.032 162.361 175.192 159.801 175.192C157.225 175.192 155.465 173.032 155.465 169.576C155.465 166.12 157.225 163.976 159.801 163.976C162.361 163.976 164.153 166.12 164.153 169.576ZM157.081 169.576C157.081 171.112 157.641 173.576 159.801 173.576C162.009 173.576 162.553 171.112 162.553 169.576C162.553 168.056 162.009 165.576 159.801 165.576C157.641 165.576 157.081 168.056 157.081 169.576ZM173.856 169.576C173.856 173.032 172.064 175.192 169.504 175.192C166.928 175.192 165.168 173.032 165.168 169.576C165.168 166.12 166.928 163.976 169.504 163.976C172.064 163.976 173.856 166.12 173.856 169.576ZM166.784 169.576C166.784 171.112 167.344 173.576 169.504 173.576C171.712 173.576 172.256 171.112 172.256 169.576C172.256 168.056 171.712 165.576 169.504 165.576C167.344 165.576 166.784 168.056 166.784 169.576ZM179.556 170.024V168.76H183.924V170.024H179.556ZM192.357 164.184H193.749V175H192.149V165.768L190.133 166.824L189.797 165.448L192.357 164.184ZM198.795 173.576C200.811 173.576 201.451 172.632 201.451 171.736C201.451 170.296 199.739 169.88 198.379 169.88H197.307V168.552H198.395C199.467 168.552 201.147 168.072 201.147 166.904C201.147 166.184 200.427 165.528 199.003 165.528C197.995 165.528 197.115 165.864 196.555 166.232L195.867 164.904C196.571 164.408 197.867 163.992 199.227 163.992C201.595 163.992 202.747 165.256 202.747 166.632C202.747 167.784 202.043 168.712 200.587 169.176V169.208C202.027 169.464 203.147 170.488 203.147 171.928C203.147 173.704 201.611 175.208 198.795 175.208C197.371 175.208 195.995 174.728 195.435 174.344L196.107 172.936C196.571 173.192 197.627 173.576 198.795 173.576ZM205.858 166.92C206.578 166.92 207.042 167.416 207.058 168.12C207.058 168.808 206.578 169.32 205.858 169.32C205.154 169.32 204.674 168.808 204.674 168.12C204.674 167.416 205.17 166.92 205.858 166.92ZM205.858 172.6C206.578 172.6 207.042 173.096 207.058 173.8C207.058 174.488 206.578 175 205.858 175C205.154 175 204.674 174.488 204.674 173.8C204.674 173.096 205.17 172.6 205.858 172.6ZM216.981 169.576C216.981 173.032 215.189 175.192 212.629 175.192C210.053 175.192 208.293 173.032 208.293 169.576C208.293 166.12 210.053 163.976 212.629 163.976C215.189 163.976 216.981 166.12 216.981 169.576ZM209.909 169.576C209.909 171.112 210.469 173.576 212.629 173.576C214.837 173.576 215.381 171.112 215.381 169.576C215.381 168.056 214.837 165.576 212.629 165.576C210.469 165.576 209.909 168.056 209.909 169.576ZM226.684 169.576C226.684 173.032 224.892 175.192 222.332 175.192C219.756 175.192 217.996 173.032 217.996 169.576C217.996 166.12 219.756 163.976 222.332 163.976C224.892 163.976 226.684 166.12 226.684 169.576ZM219.612 169.576C219.612 171.112 220.172 173.576 222.332 173.576C224.54 173.576 225.084 171.112 225.084 169.576C225.084 168.056 224.54 165.576 222.332 165.576C220.172 165.576 219.612 168.056 219.612 169.576Z" fill="black"/>
<path d="M286.049 16.284C288.017 16.284 289.617 17.884 289.617 19.852C289.617 21.964 288.065 23.436 285.233 23.436C284.401 23.436 283.793 23.356 283.329 23.244V27.5H281.713V16.284H286.049ZM285.233 21.82C286.641 21.82 288.001 21.372 288.001 19.852C288.001 18.78 287.137 17.884 286.049 17.884H283.329V21.596C283.649 21.676 284.257 21.82 285.233 21.82ZM296.185 16.124C299.289 16.124 301.833 18.7 301.833 21.9C301.833 25.1 299.289 27.692 296.169 27.692C293.049 27.692 290.521 25.1 290.521 21.9C290.521 18.7 293.033 16.124 296.185 16.124ZM296.169 17.724C293.929 17.724 292.137 19.596 292.137 21.9C292.137 24.204 293.929 26.076 296.169 26.076C298.409 26.076 300.233 24.204 300.233 21.9C300.233 19.596 298.409 17.724 296.169 17.724ZM315.31 27.5H313.71L312.878 18.876L312.03 22.044L310.03 27.5H307.998L305.998 22.044L305.15 18.876L304.318 27.5H302.702L303.79 16.284H305.598L309.006 25.58L312.43 16.284H314.238L315.31 27.5ZM316.544 16.284H323.44V17.884H318.16V20.876H323.152V22.492H318.16V25.884H323.712V27.5H316.544V16.284ZM333.487 27.5H331.679L329.231 22.94H326.943V27.5H325.327V16.284H329.903C331.759 16.284 333.231 17.772 333.231 19.612C333.231 21.068 332.271 22.332 330.975 22.764L333.487 27.5ZM326.943 21.324H329.903C330.863 21.324 331.631 20.556 331.631 19.612C331.631 18.652 330.863 17.884 329.903 17.884H326.943V21.324ZM334.75 27.5V16.284H336.35V27.5H334.75ZM348.168 25.58C346.92 27.164 345.672 27.676 343.576 27.676C340.456 27.676 337.912 25.084 337.912 21.884C337.912 18.684 340.456 16.108 343.576 16.108C345.16 16.108 346.584 16.764 347.608 17.852L346.472 18.988C345.752 18.172 344.728 17.692 343.576 17.692C341.352 17.692 339.528 19.564 339.528 21.884C339.528 24.204 341.352 26.06 343.576 26.06C344.84 26.06 345.928 25.756 346.568 24.844V22.812H343.272V21.212H348.168V25.58ZM359.496 25.58C358.248 27.164 357 27.676 354.904 27.676C351.784 27.676 349.24 25.084 349.24 21.884C349.24 18.684 351.784 16.108 354.904 16.108C356.488 16.108 357.912 16.764 358.936 17.852L357.8 18.988C357.08 18.172 356.056 17.692 354.904 17.692C352.68 17.692 350.856 19.564 350.856 21.884C350.856 24.204 352.68 26.06 354.904 26.06C356.168 26.06 357.256 25.756 357.896 24.844V22.812H354.6V21.212H359.496V25.58ZM361 27.5V16.284H362.6V27.5H361ZM369.81 16.124C372.914 16.124 375.458 18.7 375.458 21.9C375.458 25.1 372.914 27.692 369.794 27.692C366.674 27.692 364.146 25.1 364.146 21.9C364.146 18.7 366.658 16.124 369.81 16.124ZM369.794 17.724C367.554 17.724 365.762 19.596 365.762 21.9C365.762 24.204 367.554 26.076 369.794 26.076C372.034 26.076 373.858 24.204 373.858 21.9C373.858 19.596 372.034 17.724 369.794 17.724Z" fill="black"/>
<g clip-path="url(#clip0_21_225)">
<rect x="269.5" y="42.5" width="118" height="19" rx="9.5" fill="white"/>
<path d="M285.912 46.184H287.304V57H285.704V47.768L283.688 48.824L283.352 47.448L285.912 46.184ZM292.349 55.576C294.365 55.576 295.005 54.632 295.005 53.736C295.005 52.296 293.293 51.88 291.933 51.88H290.861V50.552H291.949C293.021 50.552 294.701 50.072 294.701 48.904C294.701 48.184 293.981 47.528 292.557 47.528C291.549 47.528 290.669 47.864 290.109 48.232L289.421 46.904C290.125 46.408 291.421 45.992 292.781 45.992C295.149 45.992 296.301 47.256 296.301 48.632C296.301 49.784 295.597 50.712 294.141 51.176V51.208C295.581 51.464 296.701 52.488 296.701 53.928C296.701 55.704 295.165 57.208 292.349 57.208C290.925 57.208 289.549 56.728 288.989 56.344L289.661 54.936C290.125 55.192 291.181 55.576 292.349 55.576ZM299.412 48.92C300.132 48.92 300.596 49.416 300.612 50.12C300.612 50.808 300.132 51.32 299.412 51.32C298.708 51.32 298.228 50.808 298.228 50.12C298.228 49.416 298.724 48.92 299.412 48.92ZM299.412 54.6C300.132 54.6 300.596 55.096 300.612 55.8C300.612 56.488 300.132 57 299.412 57C298.708 57 298.228 56.488 298.228 55.8C298.228 55.096 298.724 54.6 299.412 54.6ZM310.536 51.576C310.536 55.032 308.744 57.192 306.184 57.192C303.608 57.192 301.848 55.032 301.848 51.576C301.848 48.12 303.608 45.976 306.184 45.976C308.744 45.976 310.536 48.12 310.536 51.576ZM303.464 51.576C303.464 53.112 304.024 55.576 306.184 55.576C308.392 55.576 308.936 53.112 308.936 51.576C308.936 50.056 308.392 47.576 306.184 47.576C304.024 47.576 303.464 50.056 303.464 51.576ZM320.239 51.576C320.239 55.032 318.447 57.192 315.887 57.192C313.311 57.192 311.551 55.032 311.551 51.576C311.551 48.12 313.311 45.976 315.887 45.976C318.447 45.976 320.239 48.12 320.239 51.576ZM313.167 51.576C313.167 53.112 313.727 55.576 315.887 55.576C318.095 55.576 318.639 53.112 318.639 51.576C318.639 50.056 318.095 47.576 315.887 47.576C313.727 47.576 313.167 50.056 313.167 51.576ZM325.939 52.024V50.76H330.307V52.024H325.939ZM338.74 46.184H340.132V57H338.532V47.768L336.516 48.824L336.18 47.448L338.74 46.184ZM346.153 45.992C348.745 45.992 350.345 47.88 350.345 50.696C350.345 52.76 349.609 54.44 348.361 55.576C347.113 56.728 345.465 57.208 343.865 57.208C343.689 57.208 343.497 57.208 343.305 57.192V55.752C343.449 55.768 343.593 55.768 343.737 55.768C344.633 55.768 345.673 55.576 346.633 54.984C347.577 54.408 348.281 53.48 348.489 52.2H348.441C347.817 52.92 346.889 53.384 345.657 53.384C343.609 53.384 342.105 51.992 342.105 49.88C342.105 47.816 343.753 45.992 346.153 45.992ZM346.185 52.056C347.017 52.056 347.849 51.64 348.297 51C348.425 50.808 348.553 50.536 348.553 50.232C348.553 48.808 347.849 47.592 346.121 47.592C344.809 47.592 343.785 48.44 343.785 49.768C343.785 51.352 344.825 52.056 346.185 52.056ZM352.99 48.92C353.71 48.92 354.174 49.416 354.19 50.12C354.19 50.808 353.71 51.32 352.99 51.32C352.286 51.32 351.806 50.808 351.806 50.12C351.806 49.416 352.302 48.92 352.99 48.92ZM352.99 54.6C353.71 54.6 354.174 55.096 354.19 55.8C354.19 56.488 353.71 57 352.99 57C352.286 57 351.806 56.488 351.806 55.8C351.806 55.096 352.302 54.6 352.99 54.6ZM364.114 51.576C364.114 55.032 362.322 57.192 359.762 57.192C357.186 57.192 355.426 55.032 355.426 51.576C355.426 48.12 357.186 45.976 359.762 45.976C362.322 45.976 364.114 48.12 364.114 51.576ZM357.042 51.576C357.042 53.112 357.602 55.576 359.762 55.576C361.97 55.576 362.514 53.112 362.514 51.576C362.514 50.056 361.97 47.576 359.762 47.576C357.602 47.576 357.042 50.056 357.042 51.576ZM373.817 51.576C373.817 55.032 372.025 57.192 369.465 57.192C366.889 57.192 365.129 55.032 365.129 51.576C365.129 48.12 366.889 45.976 369.465 45.976C372.025 45.976 373.817 48.12 373.817 51.576ZM366.745 51.576C366.745 53.112 367.305 55.576 369.465 55.576C371.673 55.576 372.217 53.112 372.217 51.576C372.217 50.056 371.673 47.576 369.465 47.576C367.305 47.576 366.745 50.056 366.745 51.576Z" fill="black"/>
</g>
<g clip-path="url(#clip1_21_225)">
<rect x="269.5" y="71.5" width="118" height="19" rx="9.5" fill="white"/>
<path d="M285.591 75.184H286.983V86H285.383V76.768L283.367 77.824L283.031 76.448L285.591 75.184ZM293.677 75.184H295.757V81.552H297.389V83.152H295.757V86H294.157V83.152H288.685V82L293.677 75.184ZM294.157 76.592L290.509 81.552H294.157V76.592ZM299.733 77.92C300.453 77.92 300.917 78.416 300.933 79.12C300.933 79.808 300.453 80.32 299.733 80.32C299.029 80.32 298.549 79.808 298.549 79.12C298.549 78.416 299.045 77.92 299.733 77.92ZM299.733 83.6C300.453 83.6 300.917 84.096 300.933 84.8C300.933 85.488 300.453 86 299.733 86C299.029 86 298.549 85.488 298.549 84.8C298.549 84.096 299.045 83.6 299.733 83.6ZM310.856 80.576C310.856 84.032 309.064 86.192 306.504 86.192C303.928 86.192 302.168 84.032 302.168 80.576C302.168 77.12 303.928 74.976 306.504 74.976C309.064 74.976 310.856 77.12 310.856 80.576ZM303.784 80.576C303.784 82.112 304.344 84.576 306.504 84.576C308.712 84.576 309.256 82.112 309.256 80.576C309.256 79.056 308.712 76.576 306.504 76.576C304.344 76.576 303.784 79.056 303.784 80.576ZM320.559 80.576C320.559 84.032 318.767 86.192 316.207 86.192C313.631 86.192 311.871 84.032 311.871 80.576C311.871 77.12 313.631 74.976 316.207 74.976C318.767 74.976 320.559 77.12 320.559 80.576ZM313.487 80.576C313.487 82.112 314.047 84.576 316.207 84.576C318.415 84.576 318.959 82.112 318.959 80.576C318.959 79.056 318.415 76.576 316.207 76.576C314.047 76.576 313.487 79.056 313.487 80.576ZM326.259 81.024V79.76H330.627V81.024H326.259ZM339.06 75.184H340.452V86H338.852V76.768L336.836 77.824L336.5 76.448L339.06 75.184ZM346.474 74.992C349.066 74.992 350.666 76.88 350.666 79.696C350.666 81.76 349.93 83.44 348.682 84.576C347.434 85.728 345.786 86.208 344.186 86.208C344.01 86.208 343.818 86.208 343.626 86.192V84.752C343.77 84.768 343.914 84.768 344.058 84.768C344.954 84.768 345.994 84.576 346.954 83.984C347.898 83.408 348.602 82.48 348.81 81.2H348.762C348.138 81.92 347.21 82.384 345.978 82.384C343.93 82.384 342.426 80.992 342.426 78.88C342.426 76.816 344.074 74.992 346.474 74.992ZM346.506 81.056C347.338 81.056 348.17 80.64 348.618 80C348.746 79.808 348.874 79.536 348.874 79.232C348.874 77.808 348.17 76.592 346.442 76.592C345.13 76.592 344.106 77.44 344.106 78.768C344.106 80.352 345.146 81.056 346.506 81.056ZM353.311 77.92C354.031 77.92 354.495 78.416 354.511 79.12C354.511 79.808 354.031 80.32 353.311 80.32C352.607 80.32 352.127 79.808 352.127 79.12C352.127 78.416 352.623 77.92 353.311 77.92ZM353.311 83.6C354.031 83.6 354.495 84.096 354.511 84.8C354.511 85.488 354.031 86 353.311 86C352.607 86 352.127 85.488 352.127 84.8C352.127 84.096 352.623 83.6 353.311 83.6ZM364.434 80.576C364.434 84.032 362.642 86.192 360.082 86.192C357.506 86.192 355.746 84.032 355.746 80.576C355.746 77.12 357.506 74.976 360.082 74.976C362.642 74.976 364.434 77.12 364.434 80.576ZM357.362 80.576C357.362 82.112 357.922 84.576 360.082 84.576C362.29 84.576 362.834 82.112 362.834 80.576C362.834 79.056 362.29 76.576 360.082 76.576C357.922 76.576 357.362 79.056 357.362 80.576ZM374.138 80.576C374.138 84.032 372.346 86.192 369.786 86.192C367.21 86.192 365.45 84.032 365.45 80.576C365.45 77.12 367.21 74.976 369.786 74.976C372.346 74.976 374.138 77.12 374.138 80.576ZM367.066 80.576C367.066 82.112 367.626 84.576 369.786 84.576C371.994 84.576 372.538 82.112 372.538 80.576C372.538 79.056 371.994 76.576 369.786 76.576C367.626 76.576 367.066 79.056 367.066 80.576Z" fill="black"/>
</g>
<g clip-path="url(#clip2_21_225)">
<rect x="269.5" y="100.5" width="118" height="19" rx="9.5" fill="white"/>
<path d="M286.091 104.184H287.483V115H285.883V105.768L283.867 106.824L283.531 105.448L286.091 104.184ZM294.177 104.184H296.257V110.552H297.889V112.152H296.257V115H294.657V112.152H289.185V111L294.177 104.184ZM294.657 105.592L291.009 110.552H294.657V105.592ZM300.233 106.92C300.953 106.92 301.417 107.416 301.433 108.12C301.433 108.808 300.953 109.32 300.233 109.32C299.529 109.32 299.049 108.808 299.049 108.12C299.049 107.416 299.545 106.92 300.233 106.92ZM300.233 112.6C300.953 112.6 301.417 113.096 301.433 113.8C301.433 114.488 300.953 115 300.233 115C299.529 115 299.049 114.488 299.049 113.8C299.049 113.096 299.545 112.6 300.233 112.6ZM311.356 109.576C311.356 113.032 309.564 115.192 307.004 115.192C304.428 115.192 302.668 113.032 302.668 109.576C302.668 106.12 304.428 103.976 307.004 103.976C309.564 103.976 311.356 106.12 311.356 109.576ZM304.284 109.576C304.284 111.112 304.844 113.576 307.004 113.576C309.212 113.576 309.756 111.112 309.756 109.576C309.756 108.056 309.212 105.576 307.004 105.576C304.844 105.576 304.284 108.056 304.284 109.576ZM321.059 109.576C321.059 113.032 319.267 115.192 316.707 115.192C314.131 115.192 312.371 113.032 312.371 109.576C312.371 106.12 314.131 103.976 316.707 103.976C319.267 103.976 321.059 106.12 321.059 109.576ZM313.987 109.576C313.987 111.112 314.547 113.576 316.707 113.576C318.915 113.576 319.459 111.112 319.459 109.576C319.459 108.056 318.915 105.576 316.707 105.576C314.547 105.576 313.987 108.056 313.987 109.576ZM326.759 110.024V108.76H331.127V110.024H326.759ZM339.56 104.184H340.952V115H339.352V105.768L337.336 106.824L337 105.448L339.56 104.184ZM350.398 104.184V105.384L345.374 115H343.566L348.366 105.784H342.814V104.184H350.398ZM352.811 106.92C353.531 106.92 353.995 107.416 354.011 108.12C354.011 108.808 353.531 109.32 352.811 109.32C352.107 109.32 351.627 108.808 351.627 108.12C351.627 107.416 352.123 106.92 352.811 106.92ZM352.811 112.6C353.531 112.6 353.995 113.096 354.011 113.8C354.011 114.488 353.531 115 352.811 115C352.107 115 351.627 114.488 351.627 113.8C351.627 113.096 352.123 112.6 352.811 112.6ZM363.934 109.576C363.934 113.032 362.142 115.192 359.582 115.192C357.006 115.192 355.246 113.032 355.246 109.576C355.246 106.12 357.006 103.976 359.582 103.976C362.142 103.976 363.934 106.12 363.934 109.576ZM356.862 109.576C356.862 111.112 357.422 113.576 359.582 113.576C361.79 113.576 362.334 111.112 362.334 109.576C362.334 108.056 361.79 105.576 359.582 105.576C357.422 105.576 356.862 108.056 356.862 109.576ZM373.638 109.576C373.638 113.032 371.846 115.192 369.286 115.192C366.71 115.192 364.95 113.032 364.95 109.576C364.95 106.12 366.71 103.976 369.286 103.976C371.846 103.976 373.638 106.12 373.638 109.576ZM366.566 109.576C366.566 111.112 367.126 113.576 369.286 113.576C371.494 113.576 372.038 111.112 372.038 109.576C372.038 108.056 371.494 105.576 369.286 105.576C367.126 105.576 366.566 108.056 366.566 109.576Z" fill="black"/>
</g>
<g clip-path="url(#clip3_21_225)">
<rect x="269.5" y="129.5" width="118" height="19" rx="9.5" fill="white"/>
<path d="M285.591 133.184H286.983V144H285.383V134.768L283.367 135.824L283.031 134.448L285.591 133.184ZM293.677 133.184H295.757V139.552H297.389V141.152H295.757V144H294.157V141.152H288.685V140L293.677 133.184ZM294.157 134.592L290.509 139.552H294.157V134.592ZM299.733 135.92C300.453 135.92 300.917 136.416 300.933 137.12C300.933 137.808 300.453 138.32 299.733 138.32C299.029 138.32 298.549 137.808 298.549 137.12C298.549 136.416 299.045 135.92 299.733 135.92ZM299.733 141.6C300.453 141.6 300.917 142.096 300.933 142.8C300.933 143.488 300.453 144 299.733 144C299.029 144 298.549 143.488 298.549 142.8C298.549 142.096 299.045 141.6 299.733 141.6ZM310.856 138.576C310.856 142.032 309.064 144.192 306.504 144.192C303.928 144.192 302.168 142.032 302.168 138.576C302.168 135.12 303.928 132.976 306.504 132.976C309.064 132.976 310.856 135.12 310.856 138.576ZM303.784 138.576C303.784 140.112 304.344 142.576 306.504 142.576C308.712 142.576 309.256 140.112 309.256 138.576C309.256 137.056 308.712 134.576 306.504 134.576C304.344 134.576 303.784 137.056 303.784 138.576ZM320.559 138.576C320.559 142.032 318.767 144.192 316.207 144.192C313.631 144.192 311.871 142.032 311.871 138.576C311.871 135.12 313.631 132.976 316.207 132.976C318.767 132.976 320.559 135.12 320.559 138.576ZM313.487 138.576C313.487 140.112 314.047 142.576 316.207 142.576C318.415 142.576 318.959 140.112 318.959 138.576C318.959 137.056 318.415 134.576 316.207 134.576C314.047 134.576 313.487 137.056 313.487 138.576ZM326.259 139.024V137.76H330.627V139.024H326.259ZM339.06 133.184H340.452V144H338.852V134.768L336.836 135.824L336.5 134.448L339.06 133.184ZM346.474 132.992C349.066 132.992 350.666 134.88 350.666 137.696C350.666 139.76 349.93 141.44 348.682 142.576C347.434 143.728 345.786 144.208 344.186 144.208C344.01 144.208 343.818 144.208 343.626 144.192V142.752C343.77 142.768 343.914 142.768 344.058 142.768C344.954 142.768 345.994 142.576 346.954 141.984C347.898 141.408 348.602 140.48 348.81 139.2H348.762C348.138 139.92 347.21 140.384 345.978 140.384C343.93 140.384 342.426 138.992 342.426 136.88C342.426 134.816 344.074 132.992 346.474 132.992ZM346.506 139.056C347.338 139.056 348.17 138.64 348.618 138C348.746 137.808 348.874 137.536 348.874 137.232C348.874 135.808 348.17 134.592 346.442 134.592C345.13 134.592 344.106 135.44 344.106 136.768C344.106 138.352 345.146 139.056 346.506 139.056ZM353.311 135.92C354.031 135.92 354.495 136.416 354.511 137.12C354.511 137.808 354.031 138.32 353.311 138.32C352.607 138.32 352.127 137.808 352.127 137.12C352.127 136.416 352.623 135.92 353.311 135.92ZM353.311 141.6C354.031 141.6 354.495 142.096 354.511 142.8C354.511 143.488 354.031 144 353.311 144C352.607 144 352.127 143.488 352.127 142.8C352.127 142.096 352.623 141.6 353.311 141.6ZM364.434 138.576C364.434 142.032 362.642 144.192 360.082 144.192C357.506 144.192 355.746 142.032 355.746 138.576C355.746 135.12 357.506 132.976 360.082 132.976C362.642 132.976 364.434 135.12 364.434 138.576ZM357.362 138.576C357.362 140.112 357.922 142.576 360.082 142.576C362.29 142.576 362.834 140.112 362.834 138.576C362.834 137.056 362.29 134.576 360.082 134.576C357.922 134.576 357.362 137.056 357.362 138.576ZM374.138 138.576C374.138 142.032 372.346 144.192 369.786 144.192C367.21 144.192 365.45 142.032 365.45 138.576C365.45 135.12 367.21 132.976 369.786 132.976C372.346 132.976 374.138 135.12 374.138 138.576ZM367.066 138.576C367.066 140.112 367.626 142.576 369.786 142.576C371.994 142.576 372.538 140.112 372.538 138.576C372.538 137.056 371.994 134.576 369.786 134.576C367.626 134.576 367.066 137.056 367.066 138.576Z" fill="black"/>
</g>
<g clip-path="url(#clip4_21_225)">
<rect x="269.5" y="158.5" width="118" height="19" rx="9.5" fill="white"/>
<path d="M285.896 162.184H287.288V173H285.688V163.768L283.672 164.824L283.336 163.448L285.896 162.184ZM292.334 171.576C294.35 171.576 294.99 170.632 294.99 169.736C294.99 168.296 293.278 167.88 291.918 167.88H290.846V166.552H291.934C293.006 166.552 294.686 166.072 294.686 164.904C294.686 164.184 293.966 163.528 292.542 163.528C291.534 163.528 290.654 163.864 290.094 164.232L289.406 162.904C290.11 162.408 291.406 161.992 292.766 161.992C295.134 161.992 296.286 163.256 296.286 164.632C296.286 165.784 295.582 166.712 294.126 167.176V167.208C295.566 167.464 296.686 168.488 296.686 169.928C296.686 171.704 295.15 173.208 292.334 173.208C290.91 173.208 289.534 172.728 288.974 172.344L289.646 170.936C290.11 171.192 291.166 171.576 292.334 171.576ZM299.397 164.92C300.117 164.92 300.581 165.416 300.597 166.12C300.597 166.808 300.117 167.32 299.397 167.32C298.693 167.32 298.213 166.808 298.213 166.12C298.213 165.416 298.709 164.92 299.397 164.92ZM299.397 170.6C300.117 170.6 300.581 171.096 300.597 171.8C300.597 172.488 300.117 173 299.397 173C298.693 173 298.213 172.488 298.213 171.8C298.213 171.096 298.709 170.6 299.397 170.6ZM310.52 167.576C310.52 171.032 308.728 173.192 306.168 173.192C303.592 173.192 301.832 171.032 301.832 167.576C301.832 164.12 303.592 161.976 306.168 161.976C308.728 161.976 310.52 164.12 310.52 167.576ZM303.448 167.576C303.448 169.112 304.008 171.576 306.168 171.576C308.376 171.576 308.92 169.112 308.92 167.576C308.92 166.056 308.376 163.576 306.168 163.576C304.008 163.576 303.448 166.056 303.448 167.576ZM320.223 167.576C320.223 171.032 318.431 173.192 315.871 173.192C313.295 173.192 311.535 171.032 311.535 167.576C311.535 164.12 313.295 161.976 315.871 161.976C318.431 161.976 320.223 164.12 320.223 167.576ZM313.151 167.576C313.151 169.112 313.711 171.576 315.871 171.576C318.079 171.576 318.623 169.112 318.623 167.576C318.623 166.056 318.079 163.576 315.871 163.576C313.711 163.576 313.151 166.056 313.151 167.576ZM325.923 168.024V166.76H330.291V168.024H325.923ZM338.724 162.184H340.116V173H338.516V163.768L336.5 164.824L336.164 163.448L338.724 162.184ZM346.794 165.752C348.858 165.752 350.394 167.144 350.394 169.304C350.394 171.352 348.81 173.192 346.378 173.192C343.738 173.192 342.106 171.288 342.106 168.488C342.106 166.424 342.858 164.76 344.122 163.624C345.386 162.488 347.002 161.992 348.618 161.992C348.794 161.992 348.986 161.992 349.162 162.008L349.178 163.432H348.922C346.938 163.432 344.362 164.328 343.978 166.968H344.01C344.602 166.28 345.498 165.752 346.794 165.752ZM346.378 171.592C347.69 171.592 348.714 170.76 348.714 169.432C348.714 167.768 347.658 167.096 346.234 167.096C345.514 167.096 344.698 167.496 344.234 168.088C344.042 168.36 343.898 168.632 343.898 169C343.898 170.36 344.65 171.592 346.378 171.592ZM353.006 164.92C353.726 164.92 354.19 165.416 354.206 166.12C354.206 166.808 353.726 167.32 353.006 167.32C352.302 167.32 351.822 166.808 351.822 166.12C351.822 165.416 352.318 164.92 353.006 164.92ZM353.006 170.6C353.726 170.6 354.19 171.096 354.206 171.8C354.206 172.488 353.726 173 353.006 173C352.302 173 351.822 172.488 351.822 171.8C351.822 171.096 352.318 170.6 353.006 170.6ZM364.13 167.576C364.13 171.032 362.338 173.192 359.778 173.192C357.202 173.192 355.442 171.032 355.442 167.576C355.442 164.12 357.202 161.976 359.778 161.976C362.338 161.976 364.13 164.12 364.13 167.576ZM357.058 167.576C357.058 169.112 357.618 171.576 359.778 171.576C361.986 171.576 362.53 169.112 362.53 167.576C362.53 166.056 361.986 163.576 359.778 163.576C357.618 163.576 357.058 166.056 357.058 167.576ZM373.833 167.576C373.833 171.032 372.041 173.192 369.481 173.192C366.905 173.192 365.145 171.032 365.145 167.576C365.145 164.12 366.905 161.976 369.481 161.976C372.041 161.976 373.833 164.12 373.833 167.576ZM366.761 167.576C366.761 169.112 367.321 171.576 369.481 171.576C371.689 171.576 372.233 169.112 372.233 167.576C372.233 166.056 371.689 163.576 369.481 163.576C367.321 163.576 366.761 166.056 366.761 167.576Z" fill="black"/>
</g>
<defs>
<clipPath id="clip0_21_225">
<rect x="269.5" y="42.5" width="118" height="19" rx="9.5" fill="white"/>
</clipPath>
<clipPath id="clip1_21_225">
<rect x="269.5" y="71.5" width="118" height="19" rx="9.5" fill="white"/>
</clipPath>
<clipPath id="clip2_21_225">
<rect x="269.5" y="100.5" width="118" height="19" rx="9.5" fill="white"/>
</clipPath>
<clipPath id="clip3_21_225">
<rect x="269.5" y="129.5" width="118" height="19" rx="9.5" fill="white"/>
</clipPath>
<clipPath id="clip4_21_225">
<rect x="269.5" y="158.5" width="118" height="19" rx="9.5" fill="white"/>
</clipPath>
</defs>
</svg>
