<svg width="24" height="26" viewBox="0 0 24 26" fill="none" xmlns="http://www.w3.org/2000/svg">
<path d="M5.4375 14.4697H18.5625M9.375 18.4072H9.38813M14.625 18.4072H14.6381M2.8125 24.9697L6.09375 21.6885M21.1875 24.9697L17.9062 21.6885M12 6.59473V1.34473M1.5 2.65723L1.65923 2.49799C2.39766 1.75957 3.39918 1.34473 4.44347 1.34473H19.5565C20.6008 1.34473 21.6023 1.75957 22.3408 2.49799L22.5 2.65723M9.6375 22.3447H14.3625C15.8326 22.3447 16.5677 22.3447 17.1292 22.0586C17.6232 21.807 18.0247 21.4054 18.2764 20.9115C18.5625 20.3499 18.5625 19.6149 18.5625 18.1447V10.7947C18.5625 9.32459 18.5625 8.58952 18.2764 8.028C18.0247 7.53408 17.6232 7.1325 17.1292 6.88083C16.5677 6.59473 15.8326 6.59473 14.3625 6.59473H9.6375C8.16736 6.59473 7.43229 6.59473 6.87078 6.88083C6.37685 7.1325 5.97528 7.53408 5.72361 8.028C5.4375 8.58952 5.4375 9.32459 5.4375 10.7947V18.1447C5.4375 19.6149 5.4375 20.3499 5.72361 20.9115C5.97528 21.4054 6.37685 21.807 6.87078 22.0586C7.43229 22.3447 8.16736 22.3447 9.6375 22.3447Z" stroke="black" stroke-width="2" stroke-linecap="round" stroke-linejoin="round"/>
</svg>
